<svg width="100%" viewBox="0 0 820 220" xmlns="http://www.w3.org/2000/svg" font-family="Arial, sans-serif">
  <rect width="820" height="220" fill="#1e1e1e" rx="8"/>

  <!-- CROSSHAIR -->
  <rect x="10" y="10" width="185" height="200" fill="#242424" rx="6"/>
  <text x="103" y="26" fill="#aaa" font-size="9" font-weight="bold" text-anchor="middle">✛  Crosshair</text>
  <!-- dots -->
  <circle cx="65"  cy="70"  r="2" fill="#888" opacity="0.5"/>
  <circle cx="80"  cy="55"  r="2" fill="#888" opacity="0.5"/>
  <circle cx="95"  cy="75"  r="2" fill="#888" opacity="0.5"/>
  <circle cx="110" cy="60"  r="2" fill="#888" opacity="0.5"/>
  <circle cx="125" cy="65"  r="2" fill="#888" opacity="0.5"/>
  <circle cx="75"  cy="90"  r="2" fill="#888" opacity="0.5"/>
  <circle cx="90"  cy="80"  r="2" fill="#888" opacity="0.5"/>
  <circle cx="50"  cy="85"  r="2" fill="#888" opacity="0.4"/>
  <circle cx="145" cy="85"  r="2" fill="#888" opacity="0.4"/>
  <circle cx="160" cy="70"  r="2" fill="#e41a1c" opacity="0.85"/>
  <circle cx="155" cy="55"  r="2" fill="#e41a1c" opacity="0.85"/>
  <circle cx="170" cy="65"  r="2" fill="#e41a1c" opacity="0.85"/>
  <circle cx="162" cy="45"  r="2" fill="#e41a1c" opacity="0.85"/>
  <circle cx="148" cy="62"  r="2" fill="#e41a1c" opacity="0.85"/>
  <circle cx="65"  cy="140" r="2" fill="#888" opacity="0.4"/>
  <circle cx="80"  cy="155" r="2" fill="#888" opacity="0.4"/>
  <circle cx="95"  cy="135" r="2" fill="#888" opacity="0.4"/>
  <circle cx="50"  cy="150" r="2" fill="#888" opacity="0.4"/>
  <circle cx="160" cy="145" r="2" fill="#4daf4a" opacity="0.85"/>
  <circle cx="155" cy="160" r="2" fill="#4daf4a" opacity="0.85"/>
  <circle cx="170" cy="150" r="2" fill="#4daf4a" opacity="0.85"/>
  <circle cx="148" cy="140" r="2" fill="#4daf4a" opacity="0.85"/>
  <circle cx="165" cy="168" r="2" fill="#4daf4a" opacity="0.85"/>
  <circle cx="175" cy="155" r="2" fill="#4daf4a" opacity="0.85"/>
  <!-- crosshair lines -->
  <line x1="115" y1="35" x2="115" y2="195" stroke="#e74c3c" stroke-width="1.5"/>
  <line x1="18"  y1="110" x2="188" y2="110" stroke="#e74c3c" stroke-width="1.5"/>
  <!-- quadrant labels -->
  <text x="65"  cy="75" x="65"  y="75"  fill="#aaa" font-size="7.5" text-anchor="middle">Ch2−/Ch1−</text>
  <text x="155" y="75"  fill="#e41a1c" font-size="7.5" text-anchor="middle" font-weight="bold">Ch2−/Ch1+</text>
  <text x="65"  y="150" fill="#aaa" font-size="7.5" text-anchor="middle">Ch2+/Ch1−</text>
  <text x="155" y="150" fill="#4daf4a" font-size="7.5" text-anchor="middle" font-weight="bold">Ch2+/Ch1+</text>
  <text x="103" y="212" fill="#666" font-size="8" text-anchor="middle">Quadrant / multi-threshold grid</text>

  <!-- RECTANGLE -->
  <rect x="210" y="10" width="185" height="200" fill="#242424" rx="6"/>
  <text x="303" y="26" fill="#aaa" font-size="9" font-weight="bold" text-anchor="middle">▬  Rectangle</text>
  <!-- background dots -->
  <circle cx="240" cy="60"  r="2" fill="#555" opacity="0.5"/>
  <circle cx="270" cy="80"  r="2" fill="#555" opacity="0.5"/>
  <circle cx="255" cy="45"  r="2" fill="#555" opacity="0.5"/>
  <circle cx="370" cy="55"  r="2" fill="#555" opacity="0.5"/>
  <circle cx="385" cy="70"  r="2" fill="#555" opacity="0.5"/>
  <circle cx="245" cy="155" r="2" fill="#555" opacity="0.5"/>
  <circle cx="375" cy="165" r="2" fill="#555" opacity="0.5"/>
  <circle cx="360" cy="180" r="2" fill="#555" opacity="0.5"/>
  <circle cx="250" cy="170" r="2" fill="#555" opacity="0.5"/>
  <!-- IN dots -->
  <circle cx="280" cy="95"  r="2" fill="#e74c3c" opacity="0.85"/>
  <circle cx="295" cy="85"  r="2" fill="#e74c3c" opacity="0.85"/>
  <circle cx="310" cy="100" r="2" fill="#e74c3c" opacity="0.85"/>
  <circle cx="325" cy="90"  r="2" fill="#e74c3c" opacity="0.85"/>
  <circle cx="340" cy="105" r="2" fill="#e74c3c" opacity="0.85"/>
  <circle cx="300" cy="110" r="2" fill="#e74c3c" opacity="0.85"/>
  <circle cx="315" cy="120" r="2" fill="#e74c3c" opacity="0.85"/>
  <circle cx="330" cy="115" r="2" fill="#e74c3c" opacity="0.85"/>
  <circle cx="285" cy="125" r="2" fill="#e74c3c" opacity="0.85"/>
  <circle cx="350" cy="95"  r="2" fill="#e74c3c" opacity="0.85"/>
  <!-- Rectangle gate -->
  <rect x="270" y="78" width="100" height="60" fill="none" stroke="#e74c3c" stroke-width="1.8" rx="2"/>
  <!-- Handles -->
  <rect x="267" y="75"  width="6" height="6" fill="#e74c3c" rx="1"/>
  <rect x="367" y="75"  width="6" height="6" fill="#e74c3c" rx="1"/>
  <rect x="267" y="135" width="6" height="6" fill="#e74c3c" rx="1"/>
  <rect x="367" y="135" width="6" height="6" fill="#e74c3c" rx="1"/>
  <rect x="315" y="75"  width="6" height="6" fill="#e74c3c" rx="1"/>
  <rect x="315" y="135" width="6" height="6" fill="#e74c3c" rx="1"/>
  <text x="320" y="155" fill="#e74c3c" font-size="8" text-anchor="middle" font-weight="bold">IN  (n=10)</text>
  <text x="303" y="212" fill="#666" font-size="8" text-anchor="middle">Right-drag handles to reshape</text>

  <!-- ELLIPSE -->
  <rect x="410" y="10" width="185" height="200" fill="#242424" rx="6"/>
  <text x="503" y="26" fill="#aaa" font-size="9" font-weight="bold" text-anchor="middle">⬭  Ellipse</text>
  <!-- background dots -->
  <circle cx="440" cy="60"  r="2" fill="#555" opacity="0.5"/>
  <circle cx="470" cy="80"  r="2" fill="#555" opacity="0.5"/>
  <circle cx="455" cy="45"  r="2" fill="#555" opacity="0.5"/>
  <circle cx="570" cy="55"  r="2" fill="#555" opacity="0.5"/>
  <circle cx="585" cy="70"  r="2" fill="#555" opacity="0.5"/>
  <circle cx="445" cy="155" r="2" fill="#555" opacity="0.5"/>
  <circle cx="575" cy="165" r="2" fill="#555" opacity="0.5"/>
  <circle cx="450" cy="170" r="2" fill="#555" opacity="0.5"/>
  <!-- IN dots -->
  <circle cx="480" cy="100" r="2" fill="#9467bd" opacity="0.85"/>
  <circle cx="495" cy="90"  r="2" fill="#9467bd" opacity="0.85"/>
  <circle cx="510" cy="105" r="2" fill="#9467bd" opacity="0.85"/>
  <circle cx="525" cy="95"  r="2" fill="#9467bd" opacity="0.85"/>
  <circle cx="515" cy="115" r="2" fill="#9467bd" opacity="0.85"/>
  <circle cx="500" cy="110" r="2" fill="#9467bd" opacity="0.85"/>
  <circle cx="488" cy="120" r="2" fill="#9467bd" opacity="0.85"/>
  <circle cx="505" cy="88"  r="2" fill="#9467bd" opacity="0.85"/>
  <!-- Ellipse gate -->
  <ellipse cx="503" cy="105" rx="55" ry="35" fill="none" stroke="#9467bd" stroke-width="1.8"/>
  <!-- Handles -->
  <rect x="445" y="102" width="6" height="6" fill="#9467bd" rx="1"/>
  <rect x="555" y="102" width="6" height="6" fill="#9467bd" rx="1"/>
  <rect x="500" y="68"  width="6" height="6" fill="#9467bd" rx="1"/>
  <rect x="500" y="137" width="6" height="6" fill="#9467bd" rx="1"/>
  <text x="503" y="160" fill="#9467bd" font-size="8" text-anchor="middle" font-weight="bold">IN  (n=8)</text>
  <text x="503" y="212" fill="#666" font-size="8" text-anchor="middle">Fits elliptical clusters</text>

  <!-- POLYGON -->
  <rect x="610" y="10" width="200" height="200" fill="#242424" rx="6"/>
  <text x="710" y="26" fill="#aaa" font-size="9" font-weight="bold" text-anchor="middle">⬠  Polygon</text>
  <!-- background dots -->
  <circle cx="640" cy="60"  r="2" fill="#555" opacity="0.5"/>
  <circle cx="670" cy="80"  r="2" fill="#555" opacity="0.5"/>
  <circle cx="655" cy="45"  r="2" fill="#555" opacity="0.5"/>
  <circle cx="770" cy="55"  r="2" fill="#555" opacity="0.5"/>
  <circle cx="785" cy="70"  r="2" fill="#555" opacity="0.5"/>
  <circle cx="645" cy="155" r="2" fill="#555" opacity="0.5"/>
  <circle cx="775" cy="165" r="2" fill="#555" opacity="0.5"/>
  <circle cx="650" cy="170" r="2" fill="#555" opacity="0.5"/>
  <!-- IN dots — irregular cluster -->
  <circle cx="680" cy="100" r="2" fill="#ff7f0e" opacity="0.85"/>
  <circle cx="695" cy="88"  r="2" fill="#ff7f0e" opacity="0.85"/>
  <circle cx="715" cy="92"  r="2" fill="#ff7f0e" opacity="0.85"/>
  <circle cx="735" cy="105" r="2" fill="#ff7f0e" opacity="0.85"/>
  <circle cx="728" cy="120" r="2" fill="#ff7f0e" opacity="0.85"/>
  <circle cx="710" cy="130" r="2" fill="#ff7f0e" opacity="0.85"/>
  <circle cx="690" cy="125" r="2" fill="#ff7f0e" opacity="0.85"/>
  <circle cx="700" cy="108" r="2" fill="#ff7f0e" opacity="0.85"/>
  <circle cx="720" cy="112" r="2" fill="#ff7f0e" opacity="0.85"/>
  <!-- Polygon gate outline -->
  <polygon points="672,82 738,78 755,110 730,140 695,138 668,118" fill="none" stroke="#ff7f0e" stroke-width="1.8"/>
  <!-- Vertex dots -->
  <circle cx="672" cy="82"  r="3" fill="#ff7f0e"/>
  <circle cx="738" cy="78"  r="3" fill="#ff7f0e"/>
  <circle cx="755" cy="110" r="3" fill="#ff7f0e"/>
  <circle cx="730" cy="140" r="3" fill="#ff7f0e"/>
  <circle cx="695" cy="138" r="3" fill="#ff7f0e"/>
  <circle cx="668" cy="118" r="3" fill="#ff7f0e"/>
  <text x="710" y="165" fill="#ff7f0e" font-size="8" text-anchor="middle" font-weight="bold">IN  (n=9)</text>
  <text x="710" y="212" fill="#666" font-size="8" text-anchor="middle">Any freehand shape</text>
</svg>
